<svg width="317" height="213" viewBox="0 0 317 213" fill="none" xmlns="http://www.w3.org/2000/svg">
<path d="M13.9453 7.11719V32H7.94678V7.11719H13.9453ZM21.4307 7.11719V11.7485H0.632324V7.11719H21.4307ZM29.3433 5.75V32H23.584V5.75H29.3433ZM28.6597 22.1221L27.3096 22.1562C27.3096 20.8574 27.4691 19.6611 27.7881 18.5674C28.1071 17.4736 28.5628 16.5223 29.1553 15.7134C29.7477 14.9045 30.4598 14.2778 31.2915 13.8335C32.1232 13.3892 33.0461 13.167 34.0601 13.167C34.9715 13.167 35.8032 13.298 36.5552 13.5601C37.3185 13.8221 37.9736 14.2437 38.5205 14.8247C39.0788 15.4058 39.506 16.1634 39.8022 17.0977C40.1099 18.0319 40.2637 19.1712 40.2637 20.5156V32H34.4702V20.4814C34.4702 19.7295 34.362 19.1484 34.1455 18.7383C33.9404 18.3167 33.6442 18.0262 33.2568 17.8667C32.8695 17.6958 32.3966 17.6104 31.8384 17.6104C31.1662 17.6104 30.6193 17.7243 30.1978 17.9521C29.7762 18.18 29.4515 18.499 29.2236 18.9092C29.0072 19.3079 28.859 19.7808 28.7793 20.3276C28.6995 20.8745 28.6597 21.4727 28.6597 22.1221ZM52.4146 32.3418C50.9106 32.3418 49.5662 32.1082 48.3813 31.6411C47.1965 31.1626 46.1938 30.5075 45.3735 29.6758C44.5646 28.8441 43.9437 27.887 43.5107 26.8047C43.0892 25.7223 42.8784 24.5773 42.8784 23.3696V22.7202C42.8784 21.3644 43.0664 20.1112 43.4424 18.9604C43.8184 17.7983 44.3766 16.7843 45.1172 15.9185C45.8577 15.0526 46.7863 14.3804 47.9028 13.9019C49.0194 13.4119 50.3182 13.167 51.7993 13.167C53.1095 13.167 54.283 13.3778 55.3198 13.7993C56.3566 14.2209 57.2339 14.8247 57.9517 15.6108C58.6808 16.397 59.2334 17.3483 59.6094 18.4648C59.9967 19.5814 60.1904 20.8346 60.1904 22.2246V24.5659H45.083V20.96H54.5679V20.5156C54.5793 19.9004 54.471 19.3763 54.2432 18.9434C54.0267 18.5104 53.7077 18.18 53.2861 17.9521C52.8646 17.7243 52.3519 17.6104 51.748 17.6104C51.1214 17.6104 50.603 17.7471 50.1929 18.0205C49.7941 18.2939 49.4808 18.6699 49.2529 19.1484C49.0365 19.6156 48.8826 20.1567 48.7915 20.772C48.7004 21.3872 48.6548 22.0366 48.6548 22.7202V23.3696C48.6548 24.0532 48.7459 24.6742 48.9282 25.2324C49.1219 25.7907 49.3953 26.2692 49.7485 26.668C50.1131 27.0553 50.5461 27.3573 51.0474 27.5737C51.5601 27.7902 52.1411 27.8984 52.7905 27.8984C53.5767 27.8984 54.3514 27.7503 55.1147 27.4541C55.8781 27.1579 56.5332 26.668 57.0801 25.9844L59.6948 29.0947C59.3188 29.6302 58.7834 30.1486 58.0884 30.6499C57.4048 31.1512 56.5845 31.5614 55.6274 31.8804C54.6704 32.188 53.5994 32.3418 52.4146 32.3418ZM77.5195 7.11719V32H71.521V7.11719H77.5195ZM87.1924 17.4736V22.0879H75.8105V17.4736H87.1924ZM88.1665 7.11719V11.7485H75.8105V7.11719H88.1665ZM89.2944 22.9424V22.5835C89.2944 21.2277 89.4881 19.9801 89.8755 18.8408C90.2629 17.6901 90.8325 16.6932 91.5845 15.8501C92.3364 15.007 93.265 14.3519 94.3701 13.8848C95.4753 13.4062 96.7513 13.167 98.1982 13.167C99.6566 13.167 100.938 13.4062 102.043 13.8848C103.16 14.3519 104.094 15.007 104.846 15.8501C105.598 16.6932 106.168 17.6901 106.555 18.8408C106.943 19.9801 107.136 21.2277 107.136 22.5835V22.9424C107.136 24.2868 106.943 25.5343 106.555 26.6851C106.168 27.8244 105.598 28.8213 104.846 29.6758C104.094 30.5189 103.166 31.174 102.061 31.6411C100.955 32.1082 99.6794 32.3418 98.2324 32.3418C96.7855 32.3418 95.5037 32.1082 94.3872 31.6411C93.2707 31.174 92.3364 30.5189 91.5845 29.6758C90.8325 28.8213 90.2629 27.8244 89.8755 26.6851C89.4881 25.5343 89.2944 24.2868 89.2944 22.9424ZM95.0537 22.5835V22.9424C95.0537 23.6374 95.105 24.2868 95.2075 24.8906C95.3101 25.4945 95.481 26.0243 95.7202 26.48C95.9595 26.9243 96.2842 27.2718 96.6943 27.5225C97.1045 27.7731 97.6172 27.8984 98.2324 27.8984C98.8363 27.8984 99.3376 27.7731 99.7363 27.5225C100.146 27.2718 100.471 26.9243 100.71 26.48C100.95 26.0243 101.121 25.4945 101.223 24.8906C101.326 24.2868 101.377 23.6374 101.377 22.9424V22.5835C101.377 21.9113 101.326 21.279 101.223 20.6865C101.121 20.0827 100.95 19.5529 100.71 19.0972C100.471 18.63 100.146 18.2655 99.7363 18.0034C99.3262 17.7414 98.8135 17.6104 98.1982 17.6104C97.5944 17.6104 97.0874 17.7414 96.6772 18.0034C96.2785 18.2655 95.9595 18.63 95.7202 19.0972C95.481 19.5529 95.3101 20.0827 95.2075 20.6865C95.105 21.279 95.0537 21.9113 95.0537 22.5835ZM120.5 27.5054V13.5088H126.277V32H120.876L120.5 27.5054ZM121.047 23.7456L122.551 23.7114C122.551 24.9533 122.403 26.104 122.107 27.1636C121.811 28.2118 121.372 29.1232 120.791 29.8979C120.221 30.6727 119.515 31.2765 118.672 31.7095C117.84 32.131 116.877 32.3418 115.784 32.3418C114.872 32.3418 114.035 32.2165 113.271 31.9658C112.52 31.7038 111.87 31.2993 111.323 30.7524C110.776 30.1942 110.349 29.4821 110.042 28.6162C109.745 27.7389 109.597 26.6908 109.597 25.4717V13.5088H115.356V25.5059C115.356 25.916 115.408 26.2692 115.51 26.5654C115.613 26.8617 115.761 27.1123 115.955 27.3174C116.148 27.5111 116.388 27.6592 116.672 27.7617C116.969 27.8529 117.305 27.8984 117.681 27.8984C118.547 27.8984 119.224 27.7161 119.714 27.3516C120.204 26.987 120.546 26.4914 120.74 25.8647C120.945 25.2381 121.047 24.5317 121.047 23.7456ZM135.266 18.0889V32H129.507V13.5088H134.89L135.266 18.0889ZM140.735 13.3721L140.632 18.7212C140.404 18.6984 140.097 18.6699 139.709 18.6357C139.322 18.6016 138.997 18.5845 138.735 18.5845C138.063 18.5845 137.482 18.6642 136.992 18.8237C136.514 18.9718 136.115 19.1997 135.796 19.5073C135.488 19.8035 135.26 20.1795 135.112 20.6353C134.976 21.091 134.913 21.6208 134.924 22.2246L133.882 21.541C133.882 20.2992 134.001 19.1712 134.241 18.1572C134.491 17.1318 134.845 16.2489 135.3 15.5083C135.756 14.7563 136.309 14.181 136.958 13.7822C137.607 13.3721 138.337 13.167 139.146 13.167C139.43 13.167 139.709 13.1841 139.983 13.2183C140.268 13.2524 140.518 13.3037 140.735 13.3721ZM153.313 13.5088V17.5078H142.17V13.5088H153.313ZM144.512 8.91162H150.271V25.9673C150.271 26.4572 150.328 26.8389 150.442 27.1123C150.556 27.3743 150.75 27.5623 151.023 27.6763C151.308 27.7788 151.684 27.8301 152.151 27.8301C152.481 27.8301 152.755 27.8244 152.971 27.813C153.188 27.7902 153.393 27.7617 153.586 27.7275V31.8462C153.097 32.0057 152.584 32.1253 152.048 32.2051C151.513 32.2962 150.943 32.3418 150.339 32.3418C149.109 32.3418 148.055 32.1481 147.178 31.7607C146.312 31.3734 145.651 30.7638 145.195 29.9321C144.74 29.1004 144.512 28.0181 144.512 26.6851V8.91162ZM161.243 5.75V32H155.483V5.75H161.243ZM160.559 22.1221L159.209 22.1562C159.209 20.8574 159.368 19.6611 159.688 18.5674C160.007 17.4736 160.462 16.5223 161.055 15.7134C161.647 14.9045 162.359 14.2778 163.191 13.8335C164.023 13.3892 164.945 13.167 165.959 13.167C166.871 13.167 167.703 13.298 168.455 13.5601C169.218 13.8221 169.873 14.2437 170.42 14.8247C170.978 15.4058 171.405 16.1634 171.702 17.0977C172.009 18.0319 172.163 19.1712 172.163 20.5156V32H166.37V20.4814C166.37 19.7295 166.261 19.1484 166.045 18.7383C165.84 18.3167 165.544 18.0262 165.156 17.8667C164.769 17.6958 164.296 17.6104 163.738 17.6104C163.066 17.6104 162.519 17.7243 162.097 17.9521C161.676 18.18 161.351 18.499 161.123 18.9092C160.907 19.3079 160.758 19.7808 160.679 20.3276C160.599 20.8745 160.559 21.4727 160.559 22.1221ZM201.472 27.3857V32H188.21V27.3857H201.472ZM190.347 7.11719V32H184.348V7.11719H190.347ZM199.763 16.9951V21.4556H188.21V16.9951H199.763ZM201.523 7.11719V11.7485H188.21V7.11719H201.523ZM209.744 5.75V32H203.967V5.75H209.744ZM222.253 32.3418C220.75 32.3418 219.405 32.1082 218.22 31.6411C217.035 31.1626 216.033 30.5075 215.212 29.6758C214.403 28.8441 213.783 27.887 213.35 26.8047C212.928 25.7223 212.717 24.5773 212.717 23.3696V22.7202C212.717 21.3644 212.905 20.1112 213.281 18.9604C213.657 17.7983 214.215 16.7843 214.956 15.9185C215.697 15.0526 216.625 14.3804 217.742 13.9019C218.858 13.4119 220.157 13.167 221.638 13.167C222.948 13.167 224.122 13.3778 225.159 13.7993C226.195 14.2209 227.073 14.8247 227.791 15.6108C228.52 16.397 229.072 17.3483 229.448 18.4648C229.836 19.5814 230.029 20.8346 230.029 22.2246V24.5659H214.922V20.96H224.407V20.5156C224.418 19.9004 224.31 19.3763 224.082 18.9434C223.866 18.5104 223.547 18.18 223.125 17.9521C222.703 17.7243 222.191 17.6104 221.587 17.6104C220.96 17.6104 220.442 17.7471 220.032 18.0205C219.633 18.2939 219.32 18.6699 219.092 19.1484C218.875 19.6156 218.722 20.1567 218.63 20.772C218.539 21.3872 218.494 22.0366 218.494 22.7202V23.3696C218.494 24.0532 218.585 24.6742 218.767 25.2324C218.961 25.7907 219.234 26.2692 219.587 26.668C219.952 27.0553 220.385 27.3573 220.886 27.5737C221.399 27.7902 221.98 27.8984 222.629 27.8984C223.416 27.8984 224.19 27.7503 224.954 27.4541C225.717 27.1579 226.372 26.668 226.919 25.9844L229.534 29.0947C229.158 29.6302 228.622 30.1486 227.927 30.6499C227.244 31.1512 226.423 31.5614 225.466 31.8804C224.509 32.188 223.438 32.3418 222.253 32.3418ZM238.181 17.4224V32H232.422V13.5088H237.822L238.181 17.4224ZM237.48 22.1221L236.165 22.1562C236.165 20.8574 236.318 19.6611 236.626 18.5674C236.934 17.4736 237.389 16.5223 237.993 15.7134C238.597 14.9045 239.338 14.2778 240.215 13.8335C241.104 13.3892 242.129 13.167 243.291 13.167C244.1 13.167 244.835 13.2923 245.496 13.543C246.156 13.7822 246.726 14.1639 247.205 14.688C247.683 15.2007 248.048 15.8729 248.298 16.7046C248.56 17.5249 248.691 18.5104 248.691 19.6611V32H242.932V20.396C242.932 19.6099 242.841 19.0174 242.659 18.6187C242.488 18.2199 242.237 17.9521 241.907 17.8154C241.576 17.6787 241.172 17.6104 240.693 17.6104C240.192 17.6104 239.742 17.7243 239.343 17.9521C238.944 18.18 238.603 18.499 238.318 18.9092C238.044 19.3079 237.834 19.7808 237.686 20.3276C237.549 20.8745 237.48 21.4727 237.48 22.1221ZM248.042 22.1221L246.436 22.1562C246.436 20.8574 246.578 19.6611 246.863 18.5674C247.159 17.4736 247.598 16.5223 248.179 15.7134C248.771 14.9045 249.506 14.2778 250.383 13.8335C251.261 13.3892 252.28 13.167 253.442 13.167C254.285 13.167 255.06 13.2923 255.767 13.543C256.473 13.7936 257.083 14.1981 257.595 14.7563C258.108 15.3146 258.507 16.0552 258.792 16.978C259.076 17.8895 259.219 19.0174 259.219 20.3618V32H253.442V20.3618C253.442 19.5985 253.351 19.0231 253.169 18.6357C252.998 18.237 252.747 17.9692 252.417 17.8325C252.087 17.6844 251.694 17.6104 251.238 17.6104C250.691 17.6104 250.218 17.7243 249.819 17.9521C249.421 18.18 249.084 18.499 248.811 18.9092C248.549 19.3079 248.355 19.7808 248.23 20.3276C248.105 20.8745 248.042 21.4727 248.042 22.1221ZM271.472 32.3418C269.968 32.3418 268.624 32.1082 267.439 31.6411C266.254 31.1626 265.251 30.5075 264.431 29.6758C263.622 28.8441 263.001 27.887 262.568 26.8047C262.147 25.7223 261.936 24.5773 261.936 23.3696V22.7202C261.936 21.3644 262.124 20.1112 262.5 18.9604C262.876 17.7983 263.434 16.7843 264.175 15.9185C264.915 15.0526 265.844 14.3804 266.96 13.9019C268.077 13.4119 269.376 13.167 270.857 13.167C272.167 13.167 273.341 13.3778 274.377 13.7993C275.414 14.2209 276.292 14.8247 277.009 15.6108C277.738 16.397 278.291 17.3483 278.667 18.4648C279.054 19.5814 279.248 20.8346 279.248 22.2246V24.5659H264.141V20.96H273.625V20.5156C273.637 19.9004 273.529 19.3763 273.301 18.9434C273.084 18.5104 272.765 18.18 272.344 17.9521C271.922 17.7243 271.41 17.6104 270.806 17.6104C270.179 17.6104 269.661 17.7471 269.25 18.0205C268.852 18.2939 268.538 18.6699 268.311 19.1484C268.094 19.6156 267.94 20.1567 267.849 20.772C267.758 21.3872 267.712 22.0366 267.712 22.7202V23.3696C267.712 24.0532 267.804 24.6742 267.986 25.2324C268.18 25.7907 268.453 26.2692 268.806 26.668C269.171 27.0553 269.604 27.3573 270.105 27.5737C270.618 27.7902 271.199 27.8984 271.848 27.8984C272.634 27.8984 273.409 27.7503 274.172 27.4541C274.936 27.1579 275.591 26.668 276.138 25.9844L278.752 29.0947C278.376 29.6302 277.841 30.1486 277.146 30.6499C276.462 31.1512 275.642 31.5614 274.685 31.8804C273.728 32.188 272.657 32.3418 271.472 32.3418ZM287.246 17.4565V32H281.487V13.5088H286.887L287.246 17.4565ZM286.562 22.1221L285.212 22.1562C285.212 20.7435 285.383 19.4845 285.725 18.3794C286.067 17.2629 286.551 16.3172 287.178 15.5425C287.804 14.7677 288.551 14.181 289.417 13.7822C290.294 13.3721 291.268 13.167 292.339 13.167C293.193 13.167 293.974 13.2923 294.68 13.543C295.398 13.7936 296.013 14.1981 296.526 14.7563C297.05 15.3146 297.449 16.0552 297.722 16.978C298.007 17.8895 298.149 19.0174 298.149 20.3618V32H292.356V20.3447C292.356 19.6042 292.253 19.0402 292.048 18.6528C291.843 18.2541 291.547 17.9806 291.16 17.8325C290.772 17.6844 290.299 17.6104 289.741 17.6104C289.149 17.6104 288.647 17.7243 288.237 17.9521C287.827 18.18 287.497 18.499 287.246 18.9092C287.007 19.3079 286.83 19.7808 286.716 20.3276C286.614 20.8745 286.562 21.4727 286.562 22.1221ZM311.086 13.5088V17.5078H299.944V13.5088H311.086ZM302.285 8.91162H308.044V25.9673C308.044 26.4572 308.101 26.8389 308.215 27.1123C308.329 27.3743 308.523 27.5623 308.796 27.6763C309.081 27.7788 309.457 27.8301 309.924 27.8301C310.255 27.8301 310.528 27.8244 310.745 27.813C310.961 27.7902 311.166 27.7617 311.36 27.7275V31.8462C310.87 32.0057 310.357 32.1253 309.822 32.2051C309.286 32.2962 308.717 32.3418 308.113 32.3418C306.882 32.3418 305.828 32.1481 304.951 31.7607C304.085 31.3734 303.424 30.7638 302.969 29.9321C302.513 29.1004 302.285 28.0181 302.285 26.6851V8.91162Z" fill="white"/>
<path d="M16.562 60.27C15.686 60.27 14.897 60.129 14.195 59.847C13.499 59.559 12.92 59.154 12.458 58.632C12.002 58.11 11.696 57.492 11.54 56.778L12.296 56.634C12.53 57.522 13.028 58.224 13.79 58.74C14.552 59.256 15.476 59.514 16.562 59.514C17.318 59.514 17.978 59.394 18.542 59.154C19.106 58.914 19.544 58.578 19.856 58.146C20.168 57.708 20.324 57.198 20.324 56.616C20.324 56.178 20.243 55.812 20.081 55.518C19.919 55.224 19.712 54.987 19.46 54.807C19.214 54.621 18.956 54.474 18.686 54.366C18.416 54.258 18.176 54.174 17.966 54.114L14.726 53.142C14.258 53.004 13.853 52.836 13.511 52.638C13.175 52.44 12.899 52.215 12.683 51.963C12.467 51.711 12.305 51.435 12.197 51.135C12.095 50.835 12.044 50.514 12.044 50.172C12.044 49.512 12.221 48.927 12.575 48.417C12.935 47.901 13.433 47.499 14.069 47.211C14.705 46.917 15.44 46.77 16.274 46.77C17.12 46.77 17.879 46.926 18.551 47.238C19.223 47.55 19.772 47.991 20.198 48.561C20.63 49.125 20.9 49.788 21.008 50.55L20.252 50.694C20.168 50.064 19.946 49.512 19.586 49.038C19.226 48.558 18.761 48.186 18.191 47.922C17.621 47.658 16.982 47.526 16.274 47.526C15.596 47.526 14.999 47.643 14.483 47.877C13.973 48.111 13.574 48.426 13.286 48.822C12.998 49.218 12.854 49.662 12.854 50.154C12.854 50.67 12.992 51.084 13.268 51.396C13.55 51.702 13.892 51.942 14.294 52.116C14.696 52.284 15.08 52.422 15.446 52.53L18.128 53.34C18.356 53.406 18.635 53.505 18.965 53.637C19.295 53.763 19.619 53.946 19.937 54.186C20.261 54.426 20.528 54.744 20.738 55.14C20.954 55.53 21.062 56.022 21.062 56.616C21.062 57.174 20.957 57.678 20.747 58.128C20.537 58.578 20.234 58.962 19.838 59.28C19.442 59.598 18.968 59.841 18.416 60.009C17.864 60.183 17.246 60.27 16.562 60.27ZM22.8596 60V47.04H27.6296C27.7556 47.04 27.8846 47.046 28.0166 47.058C28.1486 47.064 28.2956 47.082 28.4576 47.112C29.0816 47.208 29.6216 47.436 30.0776 47.796C30.5396 48.15 30.8936 48.6 31.1396 49.146C31.3916 49.686 31.5176 50.28 31.5176 50.928C31.5176 51.576 31.3916 52.173 31.1396 52.719C30.8936 53.259 30.5396 53.709 30.0776 54.069C29.6216 54.423 29.0816 54.648 28.4576 54.744C28.2956 54.768 28.1486 54.786 28.0166 54.798C27.8846 54.81 27.7556 54.816 27.6296 54.816H23.6156V60H22.8596ZM23.6156 54.06H27.6296C27.7316 54.06 27.8516 54.054 27.9896 54.042C28.1336 54.03 28.2776 54.012 28.4216 53.988C28.9196 53.892 29.3366 53.694 29.6726 53.394C30.0146 53.094 30.2726 52.731 30.4466 52.305C30.6206 51.873 30.7076 51.414 30.7076 50.928C30.7076 50.442 30.6206 49.986 30.4466 49.56C30.2726 49.128 30.0146 48.762 29.6726 48.462C29.3366 48.162 28.9196 47.964 28.4216 47.868C28.2776 47.838 28.1336 47.82 27.9896 47.814C27.8516 47.802 27.7316 47.796 27.6296 47.796H23.6156V54.06ZM38.4126 60.27C37.1226 60.27 36.0456 59.982 35.1816 59.406C34.3236 58.83 33.6786 58.035 33.2466 57.021C32.8146 56.007 32.5986 54.84 32.5986 53.52C32.5986 52.2 32.8146 51.033 33.2466 50.019C33.6786 49.005 34.3236 48.21 35.1816 47.634C36.0456 47.058 37.1226 46.77 38.4126 46.77C39.7026 46.77 40.7766 47.058 41.6346 47.634C42.4986 48.21 43.1466 49.005 43.5786 50.019C44.0106 51.033 44.2266 52.2 44.2266 53.52C44.2266 54.84 44.0106 56.007 43.5786 57.021C43.1466 58.035 42.4986 58.83 41.6346 59.406C40.7766 59.982 39.7026 60.27 38.4126 60.27ZM38.4126 59.514C39.5226 59.514 40.4466 59.259 41.1846 58.749C41.9286 58.233 42.4866 57.525 42.8586 56.625C43.2306 55.725 43.4166 54.69 43.4166 53.52C43.4166 52.35 43.2306 51.315 42.8586 50.415C42.4866 49.509 41.9286 48.801 41.1846 48.291C40.4466 47.781 39.5226 47.526 38.4126 47.526C37.3026 47.526 36.3786 47.781 35.6406 48.291C34.9086 48.801 34.3566 49.509 33.9846 50.415C33.6126 51.315 33.4206 52.35 33.4086 53.52C33.3966 54.69 33.5766 55.725 33.9486 56.625C34.3206 57.525 34.8786 58.233 35.6226 58.749C36.3726 59.259 37.3026 59.514 38.4126 59.514ZM46.0276 60V47.04H50.7976C50.9236 47.04 51.0526 47.046 51.1846 47.058C51.3166 47.064 51.4636 47.082 51.6256 47.112C52.2496 47.208 52.7896 47.436 53.2456 47.796C53.7076 48.15 54.0616 48.6 54.3076 49.146C54.5596 49.686 54.6856 50.28 54.6856 50.928C54.6856 51.852 54.4336 52.662 53.9296 53.358C53.4256 54.054 52.7416 54.498 51.8776 54.69L51.7336 54.816H46.7836V60H46.0276ZM54.1456 60L51.5896 54.726L52.2376 54.24L55.0456 60H54.1456ZM46.7836 54.06H50.7976C50.8996 54.06 51.0196 54.054 51.1576 54.042C51.3016 54.03 51.4456 54.012 51.5896 53.988C52.0876 53.892 52.5046 53.694 52.8406 53.394C53.1826 53.094 53.4406 52.731 53.6146 52.305C53.7886 51.873 53.8756 51.414 53.8756 50.928C53.8756 50.442 53.7886 49.986 53.6146 49.56C53.4406 49.128 53.1826 48.762 52.8406 48.462C52.5046 48.162 52.0876 47.964 51.5896 47.868C51.4456 47.838 51.3016 47.82 51.1576 47.814C51.0196 47.802 50.8996 47.796 50.7976 47.796H46.7836V54.06ZM60.7035 60V47.796H55.9515V47.04H66.2115V47.796H61.4595V60H60.7035ZM70.7073 60V47.04H75.6213C76.2453 47.04 76.8213 47.175 77.3493 47.445C77.8773 47.709 78.3003 48.081 78.6183 48.561C78.9363 49.041 79.0953 49.596 79.0953 50.226C79.0953 50.91 78.8973 51.54 78.5013 52.116C78.1053 52.686 77.5833 53.088 76.9353 53.322L76.8993 52.89C77.7573 53.166 78.4443 53.61 78.9603 54.222C79.4823 54.828 79.7433 55.59 79.7433 56.508C79.7433 57.246 79.5753 57.876 79.2393 58.398C78.9033 58.914 78.4473 59.31 77.8713 59.586C77.3013 59.862 76.6653 60 75.9633 60H70.7073ZM71.4633 59.244H75.6033C76.2273 59.244 76.7883 59.139 77.2863 58.929C77.7903 58.719 78.1863 58.416 78.4743 58.02C78.7683 57.624 78.9153 57.144 78.9153 56.58C78.9153 56.016 78.7803 55.506 78.5103 55.05C78.2463 54.588 77.8893 54.222 77.4393 53.952C76.9953 53.676 76.5033 53.538 75.9633 53.538H71.4633V59.244ZM71.4633 52.8H75.6213C76.1073 52.8 76.5513 52.683 76.9533 52.449C77.3613 52.215 77.6853 51.9 77.9253 51.504C78.1653 51.108 78.2853 50.664 78.2853 50.172C78.2853 49.452 78.0273 48.873 77.5113 48.435C77.0013 47.997 76.3713 47.778 75.6213 47.778H71.4633V52.8ZM81.5178 60V47.04H86.2878C86.4138 47.04 86.5428 47.046 86.6748 47.058C86.8068 47.064 86.9538 47.082 87.1158 47.112C87.7398 47.208 88.2798 47.436 88.7358 47.796C89.1978 48.15 89.5518 48.6 89.7978 49.146C90.0498 49.686 90.1758 50.28 90.1758 50.928C90.1758 51.852 89.9238 52.662 89.4198 53.358C88.9158 54.054 88.2318 54.498 87.3678 54.69L87.2238 54.816H82.2738V60H81.5178ZM89.6358 60L87.0798 54.726L87.7278 54.24L90.5358 60H89.6358ZM82.2738 54.06H86.2878C86.3898 54.06 86.5098 54.054 86.6478 54.042C86.7918 54.03 86.9358 54.012 87.0798 53.988C87.5778 53.892 87.9948 53.694 88.3308 53.394C88.6728 53.094 88.9308 52.731 89.1048 52.305C89.2788 51.873 89.3658 51.414 89.3658 50.928C89.3658 50.442 89.2788 49.986 89.1048 49.56C88.9308 49.128 88.6728 48.762 88.3308 48.462C87.9948 48.162 87.5778 47.964 87.0798 47.868C86.9358 47.838 86.7918 47.82 86.6478 47.814C86.5098 47.802 86.3898 47.796 86.2878 47.796H82.2738V54.06ZM91.6217 60L96.3377 47.04H97.1477L101.864 60H101.054L96.4637 47.382H97.0037L92.4317 60H91.6217ZM93.4217 56.634V55.914H100.046V56.634H93.4217ZM103.67 60V47.04H104.426V60H103.67ZM107.129 60V47.04H107.885L115.769 58.65V47.04H116.525V60H115.769L107.885 48.372V60H107.129ZM121.751 60L126.467 47.04H127.277L131.993 60H131.183L126.593 47.382H127.133L122.561 60H121.751ZM123.551 56.634V55.914H130.175V56.634H123.551ZM133.619 60V47.04H134.375L142.259 58.65V47.04H143.015V60H142.259L134.375 48.372V60H133.619ZM145.537 60V47.04H149.335C149.491 47.04 149.74 47.043 150.082 47.049C150.424 47.055 150.751 47.082 151.063 47.13C152.017 47.268 152.806 47.634 153.43 48.228C154.06 48.822 154.528 49.578 154.834 50.496C155.14 51.408 155.293 52.416 155.293 53.52C155.293 54.63 155.14 55.644 154.834 56.562C154.528 57.474 154.06 58.227 153.43 58.821C152.806 59.409 152.017 59.772 151.063 59.91C150.757 59.952 150.427 59.979 150.073 59.991C149.725 59.997 149.479 60 149.335 60H145.537ZM146.347 59.244H149.335C149.623 59.244 149.911 59.235 150.199 59.217C150.493 59.199 150.739 59.172 150.937 59.136C151.789 58.992 152.473 58.665 152.989 58.155C153.511 57.639 153.889 56.985 154.123 56.193C154.363 55.395 154.483 54.504 154.483 53.52C154.483 52.536 154.363 51.648 154.123 50.856C153.889 50.058 153.511 49.404 152.989 48.894C152.473 48.378 151.789 48.048 150.937 47.904C150.739 47.868 150.49 47.841 150.19 47.823C149.89 47.805 149.605 47.796 149.335 47.796H146.347V59.244ZM160.883 60V47.04H161.603L167.111 59.082L172.565 47.04H173.321V59.982H172.565V48.858L167.525 60H166.679L161.639 48.858V60H160.883ZM175.842 60V47.04H183.762V47.796H176.598V53.142H182.682V53.898H176.598V59.244H183.762V60H175.842ZM185.914 60V47.04H186.67L194.554 58.65V47.04H195.31V60H194.554L186.67 48.372V60H185.914ZM201.504 60V47.796H196.752V47.04H207.012V47.796H202.26V60H201.504ZM207.198 60L211.914 47.04H212.724L217.44 60H216.63L212.04 47.382H212.58L208.008 60H207.198ZM208.998 56.634V55.914H215.622V56.634H208.998ZM219.247 60V47.04H220.003V59.244H226.447V60H219.247ZM234.358 60V47.796H229.606V47.04H239.866V47.796H235.114V60H234.358ZM241.303 60V47.04H246.073C246.199 47.04 246.328 47.046 246.46 47.058C246.592 47.064 246.739 47.082 246.901 47.112C247.525 47.208 248.065 47.436 248.521 47.796C248.983 48.15 249.337 48.6 249.583 49.146C249.835 49.686 249.961 50.28 249.961 50.928C249.961 51.852 249.709 52.662 249.205 53.358C248.701 54.054 248.017 54.498 247.153 54.69L247.009 54.816H242.059V60H241.303ZM249.421 60L246.865 54.726L247.513 54.24L250.321 60H249.421ZM242.059 54.06H246.073C246.175 54.06 246.295 54.054 246.433 54.042C246.577 54.03 246.721 54.012 246.865 53.988C247.363 53.892 247.78 53.694 248.116 53.394C248.458 53.094 248.716 52.731 248.89 52.305C249.064 51.873 249.151 51.414 249.151 50.928C249.151 50.442 249.064 49.986 248.89 49.56C248.716 49.128 248.458 48.762 248.116 48.462C247.78 48.162 247.363 47.964 246.865 47.868C246.721 47.838 246.577 47.82 246.433 47.814C246.295 47.802 246.175 47.796 246.073 47.796H242.059V54.06ZM251.407 60L256.123 47.04H256.933L261.649 60H260.839L256.249 47.382H256.789L252.217 60H251.407ZM253.207 56.634V55.914H259.831V56.634H253.207ZM263.456 60V47.04H264.212V60H263.456ZM266.914 60V47.04H267.67L275.554 58.65V47.04H276.31V60H275.554L267.67 48.372V60H266.914ZM279.012 60V47.04H279.768V60H279.012ZM282.471 60V47.04H283.227L291.111 58.65V47.04H291.867V60H291.111L283.227 48.372V60H282.471ZM299.483 60.27C298.517 60.27 297.671 60.105 296.945 59.775C296.219 59.445 295.613 58.98 295.127 58.38C294.641 57.78 294.275 57.069 294.029 56.247C293.789 55.419 293.669 54.51 293.669 53.52C293.669 52.2 293.885 51.036 294.317 50.028C294.749 49.014 295.394 48.222 296.252 47.652C297.116 47.076 298.193 46.788 299.483 46.788C300.719 46.788 301.748 47.079 302.57 47.661C303.392 48.237 303.977 48.984 304.325 49.902L303.587 50.208C303.275 49.398 302.768 48.753 302.066 48.273C301.364 47.787 300.503 47.544 299.483 47.544C298.373 47.544 297.449 47.799 296.711 48.309C295.979 48.813 295.427 49.515 295.055 50.415C294.683 51.315 294.491 52.35 294.479 53.52C294.467 54.69 294.647 55.725 295.019 56.625C295.391 57.525 295.949 58.233 296.693 58.749C297.443 59.259 298.373 59.514 299.483 59.514C300.593 59.514 301.49 59.295 302.174 58.857C302.858 58.413 303.356 57.798 303.668 57.012C303.986 56.226 304.145 55.314 304.145 54.276H300.689V53.52H304.919C304.937 53.688 304.946 53.838 304.946 53.97C304.952 54.102 304.955 54.21 304.955 54.294C304.955 55.422 304.766 56.439 304.388 57.345C304.01 58.245 303.416 58.959 302.606 59.487C301.802 60.009 300.761 60.27 299.483 60.27Z" fill="white"/>
<path d="M215.653 90.0114C215.653 82.2731 221.926 76 229.664 76H284.989C292.727 76 299 82.2731 299 90.0114V90.0114C299 97.7496 292.727 104.023 284.989 104.023H229.664C221.926 104.023 215.653 97.7496 215.653 90.0114V90.0114Z" fill="#D93B20"/>
<path d="M215.653 144.5C215.653 136.762 221.926 130.489 229.664 130.489H284.989C292.727 130.489 299 136.762 299 144.5V144.5C299 152.238 292.727 158.511 284.989 158.511H229.664C221.926 158.511 215.653 152.238 215.653 144.5V144.5Z" fill="#CE171E"/>
<path d="M215.653 198.989C215.653 191.251 221.926 184.977 229.664 184.977H284.989C292.727 184.977 299 191.251 299 198.989V198.989C299 206.727 292.727 213 284.989 213H229.664C221.926 213 215.653 206.727 215.653 198.989V198.989Z" fill="#C4161C"/>
<path d="M116.826 90.0114C116.826 82.2731 123.1 76 130.838 76H186.163C193.901 76 200.174 82.2731 200.174 90.0114V90.0114C200.174 97.7496 193.901 104.023 186.163 104.023H130.838C123.1 104.023 116.826 97.7496 116.826 90.0114V90.0114Z" fill="#E85721"/>
<path d="M116.826 144.5C116.826 136.762 123.1 130.489 130.838 130.489H186.163C193.901 130.489 200.174 136.762 200.174 144.5V144.5C200.174 152.238 193.901 158.511 186.163 158.511H130.838C123.1 158.511 116.826 152.238 116.826 144.5V144.5Z" fill="#E23E21"/>
<path d="M18 90.0114C18 82.2731 24.2731 76 32.0114 76H87.3361C95.0743 76 101.347 82.2731 101.347 90.0114V90.0114C101.347 97.7496 95.0744 104.023 87.3361 104.023H32.0114C24.2731 104.023 18 97.7496 18 90.0114V90.0114Z" fill="#F26522"/>
</svg>
