<svg width="297" height="105" viewBox="0 0 297 105" fill="none" xmlns="http://www.w3.org/2000/svg">
<g clip-path="url(#clip0_1_4)">
<path d="M5.0763 21.3258V3.25186H0V0H14.3994V3.25186H9.32314V21.3258H5.0763Z" fill="white"/>
<path d="M17.4651 21.3258V0H21.712V7.78195H22.3822C22.6874 6.92759 23.1917 6.2653 23.9018 5.78182C24.6118 5.29835 25.4213 5.05992 26.3304 5.05992C27.5248 5.05992 28.4738 5.48379 29.1771 6.33815C29.8805 7.19251 30.2322 8.35814 30.2322 9.82843V21.3192H25.9854V10.6894C25.9854 9.94102 25.846 9.37145 25.574 8.96745C25.2953 8.57008 24.9104 8.36477 24.4127 8.36477C23.915 8.36477 23.4306 8.54358 22.9728 8.90122C22.5083 9.25886 22.0902 9.74234 21.7186 10.3649V21.3192H17.4718L17.4651 21.3258Z" fill="white"/>
<path d="M47.0603 17.6766C46.6157 19.1006 45.9189 20.1072 44.9634 20.7033C44.0079 21.2994 42.6011 21.5974 40.7298 21.5974C38.7524 21.5974 37.1598 21.1007 35.9455 20.1072C34.7378 19.1138 34.1273 17.6899 34.1273 15.8421V10.749C34.1273 8.95422 34.7046 7.55678 35.8659 6.56334C37.0205 5.5699 38.5799 5.07318 40.5374 5.07318C42.4949 5.07318 44.0477 5.58315 45.1824 6.6097C46.3237 7.62963 46.8944 9.0933 46.8944 10.9941V14.1665H38.3742V16.0606C38.3742 16.968 38.56 17.6501 38.9382 18.1005C39.3098 18.5509 39.9402 18.7827 40.836 18.7827C41.5659 18.7827 42.1432 18.637 42.5745 18.3455C42.9992 18.0541 43.3244 17.5177 43.5367 16.7295L47.0603 17.6899V17.6766ZM38.3808 10.4841V11.7822H42.6542V10.6166C42.6542 9.59002 42.5016 8.87475 42.1897 8.4575C41.8778 8.04026 41.3204 7.83494 40.5175 7.83494C39.7146 7.83494 39.1837 8.04026 38.8586 8.44425C38.5334 8.84825 38.3808 9.53042 38.3808 10.4841Z" fill="white"/>
<path d="M61.6256 21.3258V0H74.2334V3.25186H65.8724V9.96752H72.6807V13.2194H65.8724V21.3258H61.6256Z" fill="white"/>
<path d="M83.9016 21.5908C81.9043 21.5908 80.3449 21.0874 79.2168 20.0741C78.0887 19.0608 77.5181 17.6634 77.5181 15.8884V10.8749C77.5181 9.06019 78.0821 7.64288 79.2168 6.6097C80.3449 5.57652 81.9109 5.06656 83.9016 5.06656C85.8923 5.06656 87.4318 5.58977 88.5599 6.62957C89.6879 7.66937 90.2586 9.10655 90.2586 10.9345V15.9745C90.2586 17.7362 89.6946 19.1138 88.5599 20.1072C87.4318 21.1007 85.8724 21.5974 83.9016 21.5974V21.5908ZM83.9016 18.4979C84.6514 18.4979 85.1956 18.2793 85.534 17.8422C85.8724 17.4051 86.0383 16.7097 86.0383 15.7494V11.0073C86.0383 9.99402 85.8658 9.2655 85.534 8.82176C85.1956 8.37803 84.6514 8.15285 83.9016 8.15285C83.1518 8.15285 82.6076 8.37803 82.2559 8.82176C81.9109 9.2655 81.7317 9.9874 81.7317 10.9808V15.6699C81.7317 16.6633 81.9043 17.3852 82.2559 17.829C82.601 18.2727 83.1518 18.4979 83.9016 18.4979Z" fill="white"/>
<path d="M97.9494 21.5908C96.8279 21.5908 95.9122 21.1669 95.2088 20.3258C94.5054 19.4847 94.1537 18.3124 94.1537 16.8222V5.33145H98.4006V15.7824C98.4006 16.6169 98.5267 17.2461 98.7855 17.6634C99.0442 18.0806 99.4225 18.2925 99.9202 18.2925C100.418 18.2925 100.902 18.1071 101.36 17.7296C101.825 17.3587 102.263 16.8156 102.667 16.107V5.33145H106.914V21.3258H102.667V18.8754H101.997C101.692 19.7496 101.161 20.4185 100.405 20.8887C99.6481 21.359 98.8253 21.5974 97.9361 21.5974L97.9494 21.5908Z" fill="white"/>
<path d="M111.333 21.3259V5.33148H115.58V8.07999H116.277C116.582 7.03357 117.087 6.26531 117.797 5.78846C118.507 5.31161 119.343 5.06656 120.305 5.06656C121.446 5.06656 122.316 5.45069 122.906 6.22557C123.497 7.00046 123.802 8.10649 123.802 9.54366V12.2922H119.98V10.802C119.98 9.92779 119.854 9.31186 119.608 8.93435C119.356 8.56347 118.931 8.3714 118.328 8.3714C117.797 8.3714 117.279 8.5436 116.795 8.87475C116.304 9.21252 115.899 9.7556 115.58 10.504V21.3259H111.333Z" fill="white"/>
<path d="M135.089 21.5908C133.291 21.5908 131.891 21.1139 130.882 20.1536C129.874 19.1933 129.376 17.8621 129.376 16.1533V8.42437H126.197V5.33146H129.376V0H133.623V5.33146H138.619V8.42437H133.623V15.8089C133.623 16.6832 133.802 17.3322 134.174 17.7693C134.539 18.2064 135.069 18.425 135.759 18.425C136.224 18.425 136.688 18.372 137.146 18.2661C137.611 18.1601 138.016 18.0343 138.374 17.8952L138.799 20.9616C138.46 21.1404 137.949 21.2927 137.266 21.4119C136.582 21.5312 135.852 21.5974 135.089 21.5974V21.5908Z" fill="white"/>
<path d="M142.913 21.3258V0H147.16V7.78195H147.83C148.135 6.92759 148.639 6.2653 149.349 5.78182C150.059 5.29835 150.869 5.05992 151.778 5.05992C152.972 5.05992 153.921 5.48379 154.625 6.33815C155.328 7.19251 155.68 8.35814 155.68 9.82843V21.3192H151.433V10.6894C151.433 9.94102 151.294 9.37145 151.022 8.96745C150.743 8.57008 150.358 8.36477 149.86 8.36477C149.363 8.36477 148.878 8.54358 148.42 8.90122C147.956 9.25886 147.538 9.74234 147.166 10.3649V21.3192H142.919L142.913 21.3258Z" fill="white"/>
<path d="M173.052 21.3258V0H186.244V3.25186H177.299V8.23893H185.122V11.4908H177.299V18.074H186.244V21.3258H173.052Z" fill="white"/>
<path d="M191.141 21.3258V18.2329H194.718V3.09291H191.612V0H198.964V18.2329H202.528V21.3258H191.141Z" fill="white"/>
<path d="M219.641 17.6766C219.197 19.1006 218.5 20.1072 217.544 20.7033C216.589 21.2994 215.182 21.5974 213.311 21.5974C211.333 21.5974 209.741 21.1007 208.526 20.1072C207.319 19.1138 206.708 17.6899 206.708 15.8421V10.749C206.708 8.95422 207.286 7.55678 208.447 6.56334C209.601 5.5699 211.161 5.07318 213.118 5.07318C215.076 5.07318 216.629 5.58315 217.763 6.6097C218.905 7.62963 219.475 9.0933 219.475 10.9941V14.1665H210.955V16.0606C210.955 16.968 211.141 17.6501 211.519 18.1005C211.891 18.5509 212.521 18.7827 213.417 18.7827C214.147 18.7827 214.724 18.637 215.155 18.3455C215.58 18.0541 215.905 17.5177 216.118 16.7295L219.641 17.6899V17.6766ZM210.962 10.4841V11.7822H215.235V10.6166C215.235 9.59002 215.082 8.87475 214.771 8.4575C214.459 8.04026 213.901 7.83494 213.098 7.83494C212.296 7.83494 211.765 8.04026 211.439 8.44425C211.114 8.84825 210.962 9.53042 210.962 10.4841Z" fill="white"/>
<path d="M264.041 17.6766C263.596 19.1006 262.899 20.1072 261.944 20.7033C260.988 21.2994 259.581 21.5974 257.71 21.5974C255.733 21.5974 254.14 21.1007 252.926 20.1072C251.718 19.1138 251.108 17.6899 251.108 15.8421V10.749C251.108 8.95422 251.685 7.55678 252.846 6.56334C254.007 5.5699 255.56 5.07318 257.518 5.07318C259.475 5.07318 261.028 5.58315 262.163 6.6097C263.304 7.62963 263.875 9.0933 263.875 10.9941V14.1665H255.354V16.0606C255.354 16.968 255.54 17.6501 255.918 18.1005C256.29 18.5509 256.92 18.7827 257.816 18.7827C258.546 18.7827 259.123 18.637 259.555 18.3455C259.98 18.0541 260.305 17.5177 260.517 16.7295L264.041 17.6899V17.6766ZM255.361 10.4841V11.7822H259.634V10.6166C259.634 9.59002 259.482 8.87475 259.17 8.4575C258.858 8.04026 258.301 7.83494 257.498 7.83494C256.695 7.83494 256.164 8.04026 255.839 8.44425C255.514 8.84825 255.361 9.53042 255.361 10.4841Z" fill="white"/>
<path d="M267.783 21.3259V5.33148H272.03V7.78196H272.7C273.039 6.9276 273.563 6.26531 274.273 5.78184C274.983 5.30498 275.806 5.05994 276.728 5.05994C277.922 5.05994 278.858 5.4838 279.535 6.32492C280.212 7.17265 280.55 8.33829 280.55 9.82845V21.3192H276.303V10.5835C276.303 9.87481 276.164 9.32511 275.892 8.94098C275.613 8.55685 275.228 8.36478 274.731 8.36478C274.233 8.36478 273.749 8.53035 273.277 8.8615C272.806 9.19265 272.388 9.65625 272.037 10.2589V21.3259H267.79H267.783Z" fill="white"/>
<path d="M224.983 21.3259V5.33148H229.23V7.78196H229.9C230.238 6.9276 230.763 6.26531 231.473 5.78184C232.183 5.30498 233.005 5.05994 233.928 5.05994C235.122 5.05994 236.058 5.4838 236.735 6.32492C237.412 7.17265 237.75 8.33829 237.75 9.82845V21.3192H233.503V10.5835C233.503 9.87481 233.364 9.32511 233.092 8.94098C232.813 8.55685 232.428 8.36478 231.93 8.36478C231.433 8.36478 230.948 8.53035 230.477 8.8615C230.006 9.19265 229.588 9.65625 229.236 10.2589V21.3259H224.99H224.983Z" fill="white"/>
<path d="M237.133 7.78196H237.803C238.141 6.9276 238.666 6.26531 239.376 5.78184C240.086 5.30498 240.909 5.05994 241.831 5.05994C243.025 5.05994 243.961 5.4838 244.638 6.32492C245.315 7.17265 245.653 8.33829 245.653 9.82845V21.3192H241.406V10.5835C241.406 9.87481 241.267 9.32511 240.995 8.94098C240.716 8.55685 240.331 8.36478 239.834 8.36478C239.336 8.36478 238.851 8.53035 238.38 8.8615C237.909 9.19265 237.491 9.65625 237.139 10.2589" fill="white"/>
<path d="M293.291 21.5908C291.492 21.5908 290.092 21.1139 289.084 20.1536C288.075 19.1933 287.577 17.8621 287.577 16.1533V8.42437H284.399V5.33146H287.577V0H291.824V5.33146H296.821V8.42437H291.824V15.8089C291.824 16.6832 292.003 17.3322 292.375 17.7693C292.74 18.2064 293.271 18.425 293.961 18.425C294.425 18.425 294.89 18.372 295.348 18.2661C295.812 18.1601 296.217 18.0343 296.575 17.8952L297 20.9616C296.662 21.1404 296.151 21.2927 295.467 21.4119C294.784 21.5312 294.054 21.5974 293.291 21.5974V21.5908Z" fill="white"/>
<path d="M39.0643 53.9902H5.65363C2.69411 53.9902 0.291992 51.5927 0.291992 48.6388C0.291992 45.685 2.69411 43.2875 5.65363 43.2875H39.0643C42.0238 43.2875 44.4259 45.685 44.4259 48.6388C44.4259 51.5927 42.0238 53.9902 39.0643 53.9902Z" fill="#F26522"/>
<path d="M95.5738 53.9902H62.1631C59.2036 53.9902 56.8015 51.5927 56.8015 48.6388C56.8015 45.685 59.2036 43.2875 62.1631 43.2875H95.5738C98.5333 43.2875 100.935 45.685 100.935 48.6388C100.935 51.5927 98.5333 53.9902 95.5738 53.9902Z" fill="#E85721"/>
<path d="M95.5738 79.4951H62.1631C59.2036 79.4951 56.8015 77.0976 56.8015 74.1437C56.8015 71.1899 59.2036 68.7924 62.1631 68.7924H95.5738C98.5333 68.7924 100.935 71.1899 100.935 74.1437C100.935 77.0976 98.5333 79.4951 95.5738 79.4951Z" fill="#E23E21"/>
<path d="M152.083 53.9902H118.673C115.713 53.9902 113.311 51.5927 113.311 48.6388C113.311 45.685 115.713 43.2875 118.673 43.2875H152.083C155.043 43.2875 157.445 45.685 157.445 48.6388C157.445 51.5927 155.043 53.9902 152.083 53.9902Z" fill="#D93B20"/>
<path d="M152.083 79.4951H118.673C115.713 79.4951 113.311 77.0976 113.311 74.1437C113.311 71.1899 115.713 68.7924 118.673 68.7924H152.083C155.043 68.7924 157.445 71.1899 157.445 74.1437C157.445 77.0976 155.043 79.4951 152.083 79.4951Z" fill="#CE181E"/>
<path d="M152.083 105H118.673C115.713 105 113.311 102.603 113.311 99.6487C113.311 96.6949 115.713 94.2974 118.673 94.2974H152.083C155.043 94.2974 157.445 96.6949 157.445 99.6487C157.445 102.603 155.043 105 152.083 105Z" fill="#C4161C"/>
</g>
<defs>
<clipPath id="clip0_1_4">
<rect width="297" height="105" fill="white"/>
</clipPath>
</defs>
</svg>